<svg width="59" height="79" viewBox="0 0 59 79" fill="none" xmlns="http://www.w3.org/2000/svg">
<path d="M56.8354 42.186H2.33916C1.98402 42.186 1.64343 42.3271 1.3923 42.5782C1.14118 42.8293 1.0001 43.1699 1.0001 43.5251V69.6902C0.997889 69.8675 1.03089 70.0434 1.09719 70.2078C1.16349 70.3722 1.26177 70.5218 1.38634 70.6479C1.5109 70.774 1.65927 70.8742 1.82283 70.9425C1.98639 71.0108 2.1619 71.046 2.33916 71.046H51.2783L58.1912 79V43.515C58.1898 43.3386 58.1537 43.1642 58.0848 43.0018C58.0158 42.8394 57.9155 42.6922 57.7895 42.5687C57.6635 42.4452 57.5144 42.3478 57.3506 42.2822C57.1869 42.2165 57.0118 42.1838 56.8354 42.186Z" fill="#263238"/>
<path d="M38.2422 57.15C38.2415 56.5633 38.4149 55.9895 38.7404 55.5013C39.0659 55.0131 39.5289 54.6324 40.0708 54.4074C40.6127 54.1824 41.2092 54.1232 41.7848 54.2372C42.3604 54.3513 42.8892 54.6335 43.3043 55.0482C43.7194 55.4629 44.0023 55.9914 44.117 56.5668C44.2317 57.1422 44.1731 57.7388 43.9487 58.2809C43.7244 58.8231 43.3442 59.2865 42.8564 59.6126C42.3685 59.9386 41.795 60.1127 41.2082 60.1127C40.4221 60.1127 39.6682 59.8006 39.1121 59.2451C38.556 58.6896 38.2431 57.9361 38.2422 57.15Z" fill="white"/>
<path d="M25.542 57.15C25.5413 56.5631 25.7148 55.9892 26.0405 55.5009C26.3661 55.0127 26.8293 54.632 27.3714 54.4071C27.9135 54.1822 28.5102 54.1232 29.0858 54.2375C29.6615 54.3518 30.1903 54.6344 30.6053 55.0494C31.0203 55.4644 31.3028 55.9932 31.4172 56.5688C31.5315 57.1445 31.4725 57.7412 31.2476 58.2833C31.0227 58.8254 30.642 59.2886 30.1537 59.6142C29.6655 59.9399 29.0916 60.1133 28.5047 60.1127C27.7189 60.1127 26.9653 59.8005 26.4097 59.2449C25.8541 58.6893 25.542 57.9358 25.542 57.15Z" fill="white"/>
<path d="M12.8408 57.15C12.8408 56.5641 13.0146 55.9913 13.3401 55.5041C13.6657 55.0169 14.1284 54.6371 14.6697 54.4129C15.2111 54.1887 15.8068 54.13 16.3815 54.2443C16.9562 54.3586 17.4841 54.6408 17.8984 55.0551C18.3127 55.4694 18.5949 55.9974 18.7092 56.5721C18.8235 57.1468 18.7649 57.7424 18.5406 58.2838C18.3164 58.8252 17.9367 59.2879 17.4494 59.6134C16.9622 59.9389 16.3894 60.1127 15.8035 60.1127C15.0177 60.1127 14.2642 59.8006 13.7086 59.245C13.153 58.6893 12.8408 57.9358 12.8408 57.15Z" fill="white"/>
<path d="M56.8353 1H2.33906C1.98392 1 1.64332 1.14108 1.3922 1.3922C1.14108 1.64332 1 1.98392 1 2.33906V37.824L7.91287 29.87H56.8353C57.0125 29.87 57.188 29.8349 57.3516 29.7665C57.5151 29.6982 57.6635 29.598 57.7881 29.4719C57.9126 29.3458 58.0109 29.1962 58.0772 29.0318C58.1435 28.8674 58.1765 28.6915 58.1743 28.5142V2.35579C58.1765 2.17854 58.1435 2.00262 58.0772 1.83822C58.0109 1.67382 57.9126 1.52422 57.7881 1.3981C57.6635 1.27198 57.5151 1.17184 57.3516 1.10351C57.188 1.03517 57.0125 0.999986 56.8353 1Z" fill="#EC6B05" stroke="#263238" stroke-miterlimit="10"/>
<path d="M20.932 15.9639C20.932 15.3772 20.758 14.8036 20.4319 14.3158C20.1059 13.8279 19.6424 13.4478 19.1003 13.2234C18.5581 12.999 17.9616 12.9404 17.3861 13.0552C16.8107 13.1699 16.2822 13.4527 15.8675 13.8678C15.4529 14.283 15.1707 14.8118 15.0566 15.3873C14.9425 15.9629 15.0017 16.5594 15.2267 17.1013C15.4517 17.6432 15.8324 18.1062 16.3206 18.4317C16.8088 18.7572 17.3826 18.9306 17.9694 18.9299C18.3587 18.9299 18.7442 18.8532 19.1039 18.7041C19.4636 18.555 19.7903 18.3365 20.0655 18.061C20.3406 17.7855 20.5588 17.4586 20.7075 17.0987C20.8561 16.7389 20.9325 16.3533 20.932 15.9639Z" fill="white" stroke="#263238" stroke-miterlimit="10"/>
<path d="M33.6323 15.964C33.6317 15.3781 33.4574 14.8057 33.1314 14.3189C32.8055 13.8321 32.3425 13.4529 31.8011 13.2292C31.2597 13.0055 30.6641 12.9473 30.0897 13.062C29.5152 13.1767 28.9876 13.4591 28.5736 13.8736C28.1596 14.288 27.8778 14.8159 27.7637 15.3905C27.6497 15.9652 27.7085 16.5607 27.9329 17.1018C28.1572 17.643 28.5369 18.1055 29.0241 18.4309C29.5112 18.7563 30.0839 18.93 30.6697 18.93C31.059 18.93 31.4446 18.8532 31.8042 18.7041C32.1639 18.555 32.4906 18.3365 32.7658 18.061C33.0409 17.7856 33.2591 17.4586 33.4078 17.0987C33.5565 16.7389 33.6328 16.3533 33.6323 15.964Z" fill="white" stroke="#263238" stroke-miterlimit="10"/>
<path d="M46.3373 15.9639C46.3373 15.3773 46.1633 14.8039 45.8374 14.3161C45.5115 13.8284 45.0483 13.4482 44.5063 13.2237C43.9644 12.9992 43.368 12.9405 42.7926 13.0549C42.2173 13.1694 41.6888 13.4518 41.274 13.8666C40.8592 14.2815 40.5767 14.8099 40.4623 15.3853C40.3478 15.9606 40.4066 16.557 40.631 17.099C40.8555 17.6409 41.2357 18.1042 41.7235 18.4301C42.2112 18.756 42.7847 18.9299 43.3713 18.9299C43.7608 18.9299 44.1465 18.8532 44.5063 18.7042C44.8662 18.5551 45.1931 18.3366 45.4686 18.0612C45.744 17.7858 45.9625 17.4588 46.1115 17.099C46.2606 16.7391 46.3373 16.3534 46.3373 15.9639Z" fill="white" stroke="#263238" stroke-miterlimit="10"/>
</svg>
