<svg width="55" height="77" viewBox="0 0 55 77" fill="none" xmlns="http://www.w3.org/2000/svg">
<path d="M49.5482 27.2843H5.30202C2.92608 27.2843 1 29.2104 1 31.5863V71.698C1 74.0739 2.92608 76 5.30202 76H49.5482C51.9242 76 53.8502 74.0739 53.8502 71.698V31.5863C53.8502 29.2104 51.9242 27.2843 49.5482 27.2843Z" fill="#181B30" stroke="#181B30" stroke-miterlimit="10"/>
<path d="M49.5487 27.2843H13.9827C11.6068 27.2843 9.68066 29.2104 9.68066 31.5863V71.698C9.68066 74.0739 11.6068 76 13.9827 76H49.5487C51.9246 76 53.8507 74.0739 53.8507 71.698V31.5863C53.8507 29.2104 51.9246 27.2843 49.5487 27.2843Z" fill="#181B30"/>
<mask id="mask0_825_666" style="mask-type:luminance" maskUnits="userSpaceOnUse" x="9" y="27" width="45" height="49">
<path d="M49.5487 27.2843H13.9827C11.6068 27.2843 9.68066 29.2104 9.68066 31.5863V71.698C9.68066 74.0739 11.6068 76 13.9827 76H49.5487C51.9246 76 53.8507 74.0739 53.8507 71.698V31.5863C53.8507 29.2104 51.9246 27.2843 49.5487 27.2843Z" fill="white"/>
</mask>
<g mask="url(#mask0_825_666)">
<path opacity="0.2" d="M49.5487 27.2843H13.9827C11.6068 27.2843 9.68066 29.2104 9.68066 31.5863V71.698C9.68066 74.0739 11.6068 76 13.9827 76H49.5487C51.9246 76 53.8507 74.0739 53.8507 71.698V31.5863C53.8507 29.2104 51.9246 27.2843 49.5487 27.2843Z" fill="white"/>
</g>
<path d="M49.5487 27.2843H13.9827C11.6068 27.2843 9.68066 29.2104 9.68066 31.5863V71.698C9.68066 74.0739 11.6068 76 13.9827 76H49.5487C51.9246 76 53.8507 74.0739 53.8507 71.698V31.5863C53.8507 29.2104 51.9246 27.2843 49.5487 27.2843Z" stroke="#181B30" stroke-miterlimit="10"/>
<path d="M31.7616 63.6346C24.9088 63.6346 19.1296 53.9645 17.8352 51.6498C19.6727 48.3292 22.0299 45.3242 24.8174 42.7488L24.056 41.5533C21.1197 44.3284 18.6626 47.5702 16.7844 51.1473C16.7091 51.3014 16.6699 51.4706 16.6699 51.6422C16.6699 51.8137 16.7091 51.983 16.7844 52.1371C17.0585 52.6701 23.5611 65.2107 31.7768 65.2107C33.988 65.1223 36.1169 64.3479 37.8682 62.995L37.1068 61.7767C35.5504 62.9155 33.6888 63.5626 31.7616 63.6346Z" fill="#EC6B05"/>
<path d="M46.7623 51.1471C46.4882 50.6141 39.978 38.0735 31.7623 38.0735C29.5517 38.1654 27.4239 38.9394 25.6709 40.2892L26.4323 41.5075C27.9847 40.373 29.8408 39.7286 31.7623 39.6572C38.6151 39.6572 44.3942 49.3273 45.6887 51.642C43.8581 54.9629 41.5029 57.9661 38.714 60.5354L39.4755 61.7308C42.4104 58.9526 44.8694 55.7116 46.7547 52.1369C46.8275 51.9823 46.8659 51.8138 46.8673 51.6429C46.8686 51.4719 46.8328 51.3028 46.7623 51.1471Z" fill="#EC6B05"/>
<path d="M31.7612 58.4569C32.2273 58.4418 32.6853 58.3314 33.107 58.1323C33.5287 57.9332 33.9051 57.6498 34.213 57.2996L33.4516 56.1498C32.9943 56.5959 32.3847 56.8518 31.746 56.8656C29.8881 56.8656 28.3729 54.5204 28.3729 51.6422C28.371 50.7435 28.5283 49.8516 28.8374 49.0077L28.0759 47.8503C27.569 49.0553 27.31 50.3501 27.3145 51.6574C27.3678 55.396 29.3399 58.4569 31.7612 58.4569Z" fill="#EC6B05"/>
<path d="M31.7615 44.8274C31.2966 44.8426 30.8397 44.9532 30.4193 45.1523C29.9988 45.3514 29.6238 45.6347 29.3174 45.9848L30.0788 47.1345C30.5342 46.6901 31.1407 46.4345 31.7768 46.4188C33.6423 46.4188 35.1499 48.7639 35.1499 51.6421C35.1562 52.5412 34.9988 53.4339 34.6854 54.2766L35.4468 55.434C35.9574 54.2301 36.2165 52.9345 36.2082 51.6269C36.1625 47.8883 34.1905 44.8274 31.7615 44.8274Z" fill="#EC6B05"/>
<path d="M21.9468 35.6447C21.8718 35.6497 21.7991 35.6732 21.7354 35.7131C21.6716 35.7529 21.6187 35.8079 21.5813 35.8731C21.4838 36.0449 21.4326 36.239 21.4326 36.4365C21.4326 36.634 21.4838 36.8282 21.5813 37L41.2183 67.4416C41.2517 67.509 41.3032 67.5658 41.3671 67.6054C41.4311 67.6451 41.5048 67.6661 41.58 67.6661C41.6552 67.6661 41.729 67.6451 41.7929 67.6054C41.8568 67.5658 41.9083 67.509 41.9417 67.4416C42.0391 67.2698 42.0903 67.0756 42.0903 66.8781C42.0903 66.6806 42.0391 66.4865 41.9417 66.3147L22.3122 35.9035C22.2793 35.8322 22.2282 35.7707 22.1641 35.7253C22.0999 35.6799 22.025 35.6521 21.9468 35.6447Z" fill="#EC6B05"/>
<path d="M43.7075 17.6294V25.1066H38.309V17.6294C38.3066 14.7104 37.1692 11.9066 35.1373 9.81083C33.1055 7.71502 30.3383 6.49136 27.4207 6.39847H27.1009C24.1215 6.4025 21.2653 7.58786 19.1585 9.69463C17.0517 11.8014 15.8664 14.6576 15.8624 17.637V25.1142H10.4639V17.637C10.4639 13.2246 12.2167 8.99292 15.3367 5.87287C18.4568 2.75282 22.6885 1 27.1009 1C31.5133 1 35.745 2.75282 38.8651 5.87287C41.9852 8.99292 43.738 13.2246 43.738 17.637L43.7075 17.6294Z" fill="#898EAE"/>
<mask id="mask1_825_666" style="mask-type:luminance" maskUnits="userSpaceOnUse" x="10" y="1" width="34" height="25">
<path d="M43.7085 17.6294V25.1066H38.31V17.6294C38.3075 14.7104 37.1702 11.9066 35.1383 9.81083C33.1064 7.71502 30.3393 6.49136 27.4217 6.39847H27.1019C24.1225 6.4025 21.2663 7.58786 19.1595 9.69463C17.0527 11.8014 15.8674 14.6576 15.8633 17.637V25.1142H10.4648V17.637C10.4648 13.2246 12.2177 8.99292 15.3377 5.87287C18.4578 2.75282 22.6895 1 27.1019 1C31.5143 1 35.746 2.75282 38.8661 5.87287C41.9861 8.99292 43.739 13.2246 43.739 17.637L43.7085 17.6294Z" fill="white"/>
</mask>
<g mask="url(#mask1_825_666)">
<path opacity="0.5" d="M12.1915 17.3173C11.8413 17.3173 11.1255 16.7157 11.5291 14.4467C12.2905 9.99238 17.3159 1.82996 27.0697 1.82996C36.6864 1.82996 40.227 10.4416 40.227 10.4416C38.807 8.31884 36.8792 6.58434 34.6187 5.3956C32.3582 4.20685 29.8367 3.60151 27.2829 3.63452C15.5951 3.63452 14.4606 17.3173 12.1915 17.3173Z" fill="white"/>
<path opacity="0.3" d="M38.3082 25.1067V17.6295C38.3058 14.7105 37.1684 11.9068 35.1365 9.81095C33.1046 7.71514 30.3375 6.49147 27.4199 6.39859C27.4199 6.39859 31.7448 5.1727 36.2524 9.10924C40.76 13.0458 40.227 24.0407 40.227 24.0407H40.8057V17.3021L41.7423 25.0915L38.3082 25.1067Z" fill="#181B30" fill-opacity="0.7"/>
</g>
<path d="M43.7075 17.6294V25.1066H38.309V17.6294C38.3066 14.7104 37.1692 11.9066 35.1373 9.81083C33.1055 7.71502 30.3383 6.49136 27.4207 6.39847H27.1009C24.1215 6.4025 21.2653 7.58786 19.1585 9.69463C17.0517 11.8014 15.8664 14.6576 15.8624 17.637V25.1142H10.4639V17.637C10.4639 13.2246 12.2167 8.99292 15.3367 5.87287C18.4568 2.75282 22.6885 1 27.1009 1C31.5133 1 35.745 2.75282 38.8651 5.87287C41.9852 8.99292 43.738 13.2246 43.738 17.637L43.7075 17.6294Z" stroke="#181B30" stroke-linecap="round" stroke-linejoin="round"/>
</svg>
