<svg width="40" height="40" viewBox="0 0 40 40" fill="none" xmlns="http://www.w3.org/2000/svg">
<path fill-rule="evenodd" clip-rule="evenodd" d="M20 0C31.0448 0 40 8.95522 40 20C40 31.0448 31.0448 40 20 40C8.95522 40 0 31.0448 0 20C0.0179104 19.1642 0.698507 18.4896 1.5403 18.4896C2.37612 18.4896 3.06269 19.1642 3.07463 20C3.07463 29.3433 10.6567 36.9254 20 36.9254C29.3493 36.9254 36.9254 29.3433 36.9254 20C36.9254 10.6507 29.3493 3.07463 20 3.07463H19.9761C15.797 3.07463 11.7612 4.63284 8.66866 7.43284C8.39403 7.68358 8.12537 7.9403 7.86866 8.20298H11.797C12.6448 8.20298 13.3313 8.89552 13.3313 9.74328C13.3313 10.591 12.6448 11.2836 11.797 11.2836H3.58806C2.7403 11.2836 2.05373 10.591 2.05373 9.74328V1.5403C2.05373 0.686567 2.7403 0 3.58806 0C4.44179 0 5.12836 0.686567 5.12836 1.5403V6.62687C5.59403 6.11343 6.08955 5.61194 6.60299 5.15224C10.2684 1.83726 15.034 0.00121487 19.9761 0L20 0ZM20.2866 24.6806C19.3313 23.3612 19.0925 21.5761 19.0925 19.994C19.0925 18.4119 19.3313 16.6328 20.2866 15.3194C21.1463 14.1433 22.3582 13.6239 23.797 13.6239C25.2358 13.6239 26.4358 14.1433 27.2955 15.3194C28.2567 16.6388 28.5075 18.4 28.5075 19.994C28.5075 21.5821 28.2687 23.3612 27.3134 24.6806C26.4597 25.8567 25.2418 26.3761 23.797 26.3761C22.3582 26.3761 21.1403 25.8627 20.2866 24.6806ZM14.4776 17.0567L11.4925 18V15.4866L14.997 13.9045H17.5522V26.1254H14.4776V17.0567ZM24.991 23.003C25.3552 22.209 25.397 20.8537 25.397 19.994C25.397 19.1343 25.3552 17.7851 24.991 16.997C24.7522 16.4836 24.3701 16.2269 23.797 16.2269C23.2299 16.2269 22.8478 16.4776 22.609 16.997C22.2448 17.7851 22.203 19.1343 22.203 19.994C22.203 20.8537 22.2448 22.209 22.609 23.003C22.8478 23.5224 23.2299 23.7731 23.797 23.7731C24.3701 23.7731 24.7522 23.5224 24.991 23.003Z" fill="black"/>
</svg>
