<svg width="24" height="24" viewBox="0 0 24 24" fill="none" xmlns="http://www.w3.org/2000/svg">
<path d="M2 14.75C2 15.612 2.34241 16.4386 2.9519 17.0481C3.5614 17.6576 4.38805 18 5.25 18H6V20.75C6.00014 20.982 6.06482 21.2093 6.18682 21.4066C6.30881 21.6039 6.4833 21.7634 6.69076 21.8672C6.89822 21.971 7.13046 22.015 7.36151 21.9943C7.59256 21.9736 7.81328 21.889 7.999 21.75L10.124 20.16L10.52 18.577C10.592 18.2903 10.696 18.017 10.832 17.757L7.5 20.252L7.499 16.5H5.25C4.78587 16.5 4.34075 16.3156 4.01256 15.9874C3.68437 15.6592 3.5 15.2141 3.5 14.75V6.25C3.5 5.284 4.284 4.5 5.25 4.5H18.75C19.716 4.5 20.5 5.284 20.5 6.25V10.095C21.0649 10.2333 21.5827 10.5199 22 10.925V6.25C22 5.8232 21.9159 5.40059 21.7526 5.00628C21.5893 4.61197 21.3499 4.25369 21.0481 3.9519C20.7463 3.65011 20.388 3.41072 19.9937 3.24739C19.5994 3.08406 19.1768 3 18.75 3H5.25C4.38805 3 3.5614 3.34241 2.9519 3.9519C2.34241 4.5614 2 5.38805 2 6.25V14.75ZM18.098 11.67L12.196 17.572C11.8523 17.9164 11.608 18.3472 11.489 18.819L11.031 20.65C10.9855 20.8322 10.9879 21.023 11.038 21.204C11.0882 21.385 11.1844 21.5498 11.3172 21.6826C11.45 21.8153 11.615 21.9114 11.796 21.9614C11.977 22.0114 12.1679 22.0137 12.35 21.968L14.18 21.511C14.6521 21.3922 15.0834 21.1479 15.428 20.804L21.33 14.902C21.5422 14.6898 21.7106 14.4378 21.8254 14.1606C21.9403 13.8833 21.9994 13.5861 21.9994 13.286C21.9994 12.9859 21.9403 12.6887 21.8254 12.4114C21.7106 12.1342 21.5422 11.8822 21.33 11.67C21.1178 11.4578 20.8658 11.2894 20.5886 11.1746C20.3113 11.0597 20.0141 11.0006 19.714 11.0006C19.4139 11.0006 19.1167 11.0597 18.8394 11.1746C18.5622 11.2894 18.3102 11.4578 18.098 11.67Z" fill="black"/>
</svg>
