<svg width="24" height="24" viewBox="0 0 24 24" fill="none" xmlns="http://www.w3.org/2000/svg">
<path d="M8.65596 2.3999C8.08716 2.3999 7.58676 2.7767 7.43076 3.3239L4.73076 12.7727C4.67652 12.9624 4.66705 13.162 4.7031 13.356C4.73915 13.5499 4.81974 13.7329 4.93851 13.8904C5.05728 14.0479 5.211 14.1757 5.38755 14.2637C5.56411 14.3517 5.75869 14.3975 5.95596 14.3975H7.47756L6.07356 20.0135C5.75676 21.2795 7.32156 22.1459 8.22756 21.2075L10.8904 18.4895C10.7187 17.4639 10.7918 16.4122 11.1037 15.4202C11.4156 14.4282 11.9575 13.524 12.6853 12.7812C13.413 12.0383 14.3059 11.478 15.2913 11.1458C16.2767 10.8136 17.3266 10.7189 18.3556 10.8695L18.64 10.5779L18.6436 10.5731C19.4128 9.7727 18.8596 8.3999 17.7244 8.3999H14.6476L16.1608 4.0871L16.1644 4.0775C16.2283 3.88587 16.2457 3.6818 16.2152 3.4821C16.1848 3.28241 16.1073 3.09282 15.9891 2.92896C15.871 2.76511 15.7156 2.63169 15.5357 2.5397C15.3559 2.44771 15.1568 2.3998 14.9548 2.3999H8.65596ZM22.8004 17.3999C22.8004 18.8321 22.2314 20.2056 21.2187 21.2183C20.206 22.231 18.8325 22.7999 17.4004 22.7999C15.9682 22.7999 14.5947 22.231 13.582 21.2183C12.5693 20.2056 12.0004 18.8321 12.0004 17.3999C12.0004 15.9677 12.5693 14.5942 13.582 13.5815C14.5947 12.5688 15.9682 11.9999 17.4004 11.9999C18.8325 11.9999 20.206 12.5688 21.2187 13.5815C22.2314 14.5942 22.8004 15.9677 22.8004 17.3999ZM20.056 16.8755L16.492 14.8955C16.4006 14.8447 16.2976 14.8187 16.1931 14.8199C16.0886 14.8212 15.9863 14.8497 15.8962 14.9027C15.8061 14.9557 15.7314 15.0313 15.6795 15.122C15.6276 15.2127 15.6004 15.3154 15.6004 15.4199V19.3799C15.6004 19.4844 15.6276 19.5871 15.6795 19.6778C15.7314 19.7685 15.8061 19.8441 15.8962 19.8971C15.9863 19.9501 16.0886 19.9786 16.1931 19.9799C16.2976 19.9811 16.4006 19.9551 16.492 19.9043L20.056 17.9243C20.1494 17.8723 20.2273 17.7963 20.2816 17.7041C20.3358 17.6119 20.3644 17.5069 20.3644 17.3999C20.3644 17.2929 20.3358 17.1879 20.2816 17.0957C20.2273 17.0035 20.1494 16.9275 20.056 16.8755Z" fill="black"/>
</svg>
