<svg width="24" height="24" viewBox="0 0 24 24" fill="none" xmlns="http://www.w3.org/2000/svg">
<path d="M7.43076 3.3239C7.58676 2.7767 8.08716 2.3999 8.65596 2.3999H14.956C15.8248 2.3999 16.4392 3.2519 16.1644 4.0775L16.1608 4.0871L14.6488 8.3999H17.7244C18.8596 8.3999 19.4128 9.7727 18.6436 10.5731L18.64 10.5779L18.3556 10.8683C17.8094 10.7899 17.2556 10.779 16.7068 10.8359L17.7796 9.7415C17.7902 9.73111 17.7973 9.7177 17.8 9.7031C17.8012 9.6851 17.7983 9.66705 17.7916 9.6503C17.7846 9.63472 17.7743 9.62081 17.7616 9.6095C17.7568 9.6039 17.7444 9.6007 17.7244 9.5999H13.8004C13.7045 9.59978 13.6101 9.57669 13.525 9.53258C13.4399 9.48847 13.3666 9.42461 13.3113 9.34635C13.2559 9.26809 13.2201 9.17771 13.2069 9.08277C13.1936 8.98784 13.2033 8.89112 13.2352 8.8007L15.0268 3.6959C15.0302 3.68472 15.0309 3.67289 15.0288 3.66139C15.0268 3.64988 15.0221 3.63901 15.0151 3.62966C15.0081 3.62031 14.999 3.61274 14.9885 3.60757C14.978 3.6024 14.9664 3.59978 14.9548 3.5999H8.65596C8.63961 3.59939 8.62357 3.60445 8.61048 3.61427C8.5974 3.62408 8.58804 3.63806 8.58396 3.6539L5.88396 13.1027C5.87196 13.1507 5.90676 13.1987 5.95596 13.1987H8.24556C8.33657 13.1988 8.42637 13.2195 8.50816 13.2594C8.58996 13.2994 8.6616 13.3573 8.71768 13.429C8.77375 13.5007 8.81279 13.5842 8.83182 13.6732C8.85086 13.7622 8.8494 13.8544 8.82756 13.9427L7.23756 20.3027C7.23455 20.3145 7.23333 20.3266 7.23396 20.3387C7.23396 20.3435 7.23516 20.3479 7.23756 20.3519C7.24156 20.3623 7.25356 20.3743 7.27356 20.3879C7.28928 20.3955 7.30649 20.3996 7.32396 20.3999L7.33596 20.3951C7.34659 20.3894 7.3563 20.3821 7.36476 20.3735L7.36836 20.3687L10.8244 16.8419C10.7786 17.3917 10.8008 17.9451 10.8904 18.4895L8.22756 21.2075C7.32276 22.1459 5.75676 21.2795 6.07356 20.0123L7.47756 14.3975H5.95596C5.75869 14.3975 5.56411 14.3517 5.38755 14.2637C5.211 14.1757 5.05728 14.0479 4.93851 13.8904C4.81974 13.7329 4.73915 13.5499 4.7031 13.356C4.66705 13.162 4.67652 12.9624 4.73076 12.7727L7.43076 3.3239ZM22.8004 17.3999C22.8004 18.8321 22.2314 20.2056 21.2187 21.2183C20.206 22.231 18.8325 22.7999 17.4004 22.7999C15.9682 22.7999 14.5947 22.231 13.582 21.2183C12.5693 20.2056 12.0004 18.8321 12.0004 17.3999C12.0004 15.9677 12.5693 14.5942 13.582 13.5815C14.5947 12.5688 15.9682 11.9999 17.4004 11.9999C18.8325 11.9999 20.206 12.5688 21.2187 13.5815C22.2314 14.5942 22.8004 15.9677 22.8004 17.3999ZM20.056 16.8755L16.492 14.8955C16.4006 14.8447 16.2976 14.8187 16.1931 14.8199C16.0886 14.8212 15.9863 14.8497 15.8962 14.9027C15.8061 14.9557 15.7314 15.0313 15.6795 15.122C15.6276 15.2127 15.6004 15.3154 15.6004 15.4199V19.3799C15.6004 19.4844 15.6276 19.5871 15.6795 19.6778C15.7314 19.7685 15.8061 19.8441 15.8962 19.8971C15.9863 19.9501 16.0886 19.9786 16.1931 19.9799C16.2976 19.9811 16.4006 19.9551 16.492 19.9043L20.056 17.9243C20.1494 17.8723 20.2273 17.7963 20.2816 17.7041C20.3358 17.6119 20.3644 17.5069 20.3644 17.3999C20.3644 17.2929 20.3358 17.1879 20.2816 17.0957C20.2273 17.0035 20.1494 16.9275 20.056 16.8755Z" fill="black"/>
</svg>
