<svg width="24" height="24" viewBox="0 0 24 24" fill="none" xmlns="http://www.w3.org/2000/svg">
<path d="M4.5 5.75C4.5 5.06 5.06 4.5 5.75 4.5H7.75C7.94891 4.5 8.13968 4.42098 8.28033 4.28033C8.42098 4.13968 8.5 3.94891 8.5 3.75C8.5 3.55109 8.42098 3.36032 8.28033 3.21967C8.13968 3.07902 7.94891 3 7.75 3H5.75C5.02065 3 4.32118 3.28973 3.80546 3.80546C3.28973 4.32118 3 5.02065 3 5.75V7.75C3 7.94891 3.07902 8.13968 3.21967 8.28033C3.36032 8.42098 3.55109 8.5 3.75 8.5C3.94891 8.5 4.13968 8.42098 4.28033 8.28033C4.42098 8.13968 4.5 7.94891 4.5 7.75V5.75ZM4.5 18.25C4.5 18.94 5.06 19.5 5.75 19.5H7.75C7.94891 19.5 8.13968 19.579 8.28033 19.7197C8.42098 19.8603 8.5 20.0511 8.5 20.25C8.5 20.4489 8.42098 20.6397 8.28033 20.7803C8.13968 20.921 7.94891 21 7.75 21H5.75C5.02065 21 4.32118 20.7103 3.80546 20.1945C3.28973 19.6788 3 18.9793 3 18.25V16.25C3 16.0511 3.07902 15.8603 3.21967 15.7197C3.36032 15.579 3.55109 15.5 3.75 15.5C3.94891 15.5 4.13968 15.579 4.28033 15.7197C4.42098 15.8603 4.5 16.0511 4.5 16.25V18.25ZM18.25 4.5C18.94 4.5 19.5 5.06 19.5 5.75V7.75C19.5 7.94891 19.579 8.13968 19.7197 8.28033C19.8603 8.42098 20.0511 8.5 20.25 8.5C20.4489 8.5 20.6397 8.42098 20.7803 8.28033C20.921 8.13968 21 7.94891 21 7.75V5.75C21 5.02065 20.7103 4.32118 20.1945 3.80546C19.6788 3.28973 18.9793 3 18.25 3H16.25C16.0511 3 15.8603 3.07902 15.7197 3.21967C15.579 3.36032 15.5 3.55109 15.5 3.75C15.5 3.94891 15.579 4.13968 15.7197 4.28033C15.8603 4.42098 16.0511 4.5 16.25 4.5H18.25ZM19.5 18.25C19.5 18.94 18.94 19.5 18.25 19.5H16.25C16.0511 19.5 15.8603 19.579 15.7197 19.7197C15.579 19.8603 15.5 20.0511 15.5 20.25C15.5 20.4489 15.579 20.6397 15.7197 20.7803C15.8603 20.921 16.0511 21 16.25 21H18.25C18.9793 21 19.6788 20.7103 20.1945 20.1945C20.7103 19.6788 21 18.9793 21 18.25V16.25C21 16.0511 20.921 15.8603 20.7803 15.7197C20.6397 15.579 20.4489 15.5 20.25 15.5C20.0511 15.5 19.8603 15.579 19.7197 15.7197C19.579 15.8603 19.5 16.0511 19.5 16.25V18.25Z" fill="black"/>
</svg>
