<svg width="17" height="16" viewBox="0 0 17 16" fill="none" xmlns="http://www.w3.org/2000/svg">
<path d="M9.1668 6.91C9.14454 6.78705 9.07706 6.6769 8.97764 6.60122C8.87821 6.52554 8.75406 6.48983 8.62963 6.50112C8.50519 6.51241 8.38949 6.56988 8.30531 6.66222C8.22113 6.75455 8.17457 6.87505 8.1748 7V11.502L8.18281 11.592C8.20507 11.7149 8.27255 11.8251 8.37197 11.9008C8.4714 11.9765 8.59555 12.0122 8.71998 12.0009C8.84442 11.9896 8.96012 11.9321 9.0443 11.8398C9.12848 11.7475 9.17503 11.6269 9.1748 11.502V7L9.1668 6.91ZM9.4738 4.75C9.4738 4.55109 9.39479 4.36032 9.25414 4.21967C9.11348 4.07902 8.92272 4 8.7238 4C8.52489 4 8.33413 4.07902 8.19347 4.21967C8.05282 4.36032 7.9738 4.55109 7.9738 4.75C7.9738 4.94891 8.05282 5.13968 8.19347 5.28033C8.33413 5.42098 8.52489 5.5 8.7238 5.5C8.92272 5.5 9.11348 5.42098 9.25414 5.28033C9.39479 5.13968 9.4738 4.94891 9.4738 4.75ZM16.6748 8C16.6748 5.87827 15.832 3.84344 14.3317 2.34315C12.8314 0.842855 10.7965 0 8.6748 0C6.55307 0 4.51824 0.842855 3.01795 2.34315C1.51766 3.84344 0.674805 5.87827 0.674805 8C0.674805 10.1217 1.51766 12.1566 3.01795 13.6569C4.51824 15.1571 6.55307 16 8.6748 16C10.7965 16 12.8314 15.1571 14.3317 13.6569C15.832 12.1566 16.6748 10.1217 16.6748 8ZM1.6748 8C1.6748 7.08075 1.85587 6.1705 2.20765 5.32122C2.55943 4.47194 3.07505 3.70026 3.72506 3.05025C4.37507 2.40024 5.14674 1.88463 5.99602 1.53284C6.8453 1.18106 7.75555 1 8.6748 1C9.59406 1 10.5043 1.18106 11.3536 1.53284C12.2029 1.88463 12.9745 2.40024 13.6246 3.05025C14.2746 3.70026 14.7902 4.47194 15.142 5.32122C15.4937 6.1705 15.6748 7.08075 15.6748 8C15.6748 9.85652 14.9373 11.637 13.6246 12.9497C12.3118 14.2625 10.5313 15 8.6748 15C6.81829 15 5.03781 14.2625 3.72506 12.9497C2.4123 11.637 1.6748 9.85652 1.6748 8Z" fill="black"/>
</svg>
