<svg width="24" height="24" viewBox="0 0 24 24" fill="none" xmlns="http://www.w3.org/2000/svg">
<path d="M5.74609 3C5.28196 3 4.83685 3.18437 4.50866 3.51256C4.18047 3.84075 3.99609 4.28587 3.99609 4.75V19.25C3.99609 20.216 4.78009 21 5.74609 21H9.24609C9.71022 21 10.1553 20.8156 10.4835 20.4874C10.8117 20.1592 10.9961 19.7141 10.9961 19.25V4.75C10.9961 4.28587 10.8117 3.84075 10.4835 3.51256C10.1553 3.18437 9.71022 3 9.24609 3H5.74609ZM14.7461 3C14.282 3 13.8368 3.18437 13.5087 3.51256C13.1805 3.84075 12.9961 4.28587 12.9961 4.75V19.25C12.9961 20.216 13.7801 21 14.7461 21H18.2461C18.7102 21 19.1553 20.8156 19.4835 20.4874C19.8117 20.1592 19.9961 19.7141 19.9961 19.25V4.75C19.9961 4.52019 19.9508 4.29262 19.8629 4.0803C19.7749 3.86798 19.646 3.67507 19.4835 3.51256C19.321 3.35006 19.1281 3.22116 18.9158 3.13321C18.7035 3.04527 18.4759 3 18.2461 3H14.7461Z" fill="black"/>
</svg>
