<svg width="24" height="24" viewBox="0 0 24 24" fill="none" xmlns="http://www.w3.org/2000/svg">
<path d="M7.608 4.61491C7.49377 4.55286 7.36537 4.52156 7.2354 4.5241C7.10542 4.52663 6.97834 4.5629 6.86661 4.62935C6.75488 4.6958 6.66235 4.79015 6.59807 4.90315C6.5338 5.01615 6.50001 5.14391 6.5 5.27391V18.7259C6.50001 18.8559 6.5338 18.9837 6.59807 19.0967C6.66235 19.2097 6.75488 19.304 6.86661 19.3705C6.97834 19.4369 7.10542 19.4732 7.2354 19.4757C7.36537 19.4783 7.49377 19.447 7.608 19.3849L19.97 12.6589C20.0886 12.5945 20.1876 12.4993 20.2565 12.3833C20.3255 12.2673 20.3619 12.1349 20.3619 11.9999C20.3619 11.865 20.3255 11.7325 20.2565 11.6165C20.1876 11.5006 20.0886 11.4053 19.97 11.3409L7.608 4.61491ZM5 5.27391C5 3.56691 6.826 2.48191 8.325 3.29691L20.687 10.0239C22.253 10.8759 22.253 13.1239 20.687 13.9759L8.325 20.7019C6.826 21.5179 5 20.4319 5 18.7259V5.27391Z" fill="black"/>
</svg>
