<svg width="24" height="24" viewBox="0 0 24 24" fill="none" xmlns="http://www.w3.org/2000/svg">
<path d="M9.28032 6.28009C9.4128 6.13792 9.48492 5.94987 9.48149 5.75557C9.47806 5.56127 9.39935 5.37588 9.26194 5.23847C9.12453 5.10106 8.93914 5.02234 8.74484 5.01892C8.55054 5.01549 8.36249 5.08761 8.22032 5.22009L3.22032 10.2201C3.07987 10.3607 3.00098 10.5513 3.00098 10.7501C3.00098 10.9488 3.07987 11.1395 3.22032 11.2801L8.22032 16.2801C8.36249 16.4126 8.55054 16.4847 8.74484 16.4813C8.93914 16.4778 9.12453 16.3991 9.26194 16.2617C9.39935 16.1243 9.47806 15.9389 9.48149 15.7446C9.48492 15.5503 9.4128 15.3623 9.28032 15.2201L5.56032 11.5001H13.2503C14.9079 11.5001 16.4976 12.1586 17.6697 13.3307C18.8418 14.5028 19.5003 16.0925 19.5003 17.7501V18.2501C19.5003 18.449 19.5793 18.6398 19.72 18.7804C19.8606 18.9211 20.0514 19.0001 20.2503 19.0001C20.4492 19.0001 20.64 18.9211 20.7806 18.7804C20.9213 18.6398 21.0003 18.449 21.0003 18.2501V17.7501C21.0003 15.6947 20.1838 13.7234 18.7304 12.27C17.277 10.8166 15.3057 10.0001 13.2503 10.0001H5.56032L9.28032 6.28009Z" fill="black"/>
</svg>
