<svg width="24" height="24" viewBox="0 0 24 24" fill="none" xmlns="http://www.w3.org/2000/svg">
<path d="M5.25 4C4.38805 4 3.5614 4.34241 2.9519 4.9519C2.34241 5.5614 2 6.38805 2 7.25V16.75C2 17.612 2.34241 18.4386 2.9519 19.0481C3.5614 19.6576 4.38805 20 5.25 20H18.75C19.1768 20 19.5994 19.9159 19.9937 19.7526C20.388 19.5893 20.7463 19.3499 21.0481 19.0481C21.3499 18.7463 21.5893 18.388 21.7526 17.9937C21.9159 17.5994 22 17.1768 22 16.75V7.25C22 6.8232 21.9159 6.40059 21.7526 6.00628C21.5893 5.61197 21.3499 5.25369 21.0481 4.9519C20.7463 4.65011 20.388 4.41072 19.9937 4.24739C19.5994 4.08406 19.1768 4 18.75 4H5.25ZM3.5 7.25C3.5 6.284 4.284 5.5 5.25 5.5H18.75C19.716 5.5 20.5 6.284 20.5 7.25V16.75C20.5 17.2141 20.3156 17.6592 19.9874 17.9874C19.6592 18.3156 19.2141 18.5 18.75 18.5H5.25C4.78587 18.5 4.34075 18.3156 4.01256 17.9874C3.68437 17.6592 3.5 17.2141 3.5 16.75V7.25ZM18.25 7C18.0511 7 17.8603 7.07902 17.7197 7.21967C17.579 7.36032 17.5 7.55109 17.5 7.75V8.25C17.5 8.44891 17.579 8.63968 17.7197 8.78033C17.8603 8.92098 18.0511 9 18.25 9C18.4489 9 18.6397 8.92098 18.7803 8.78033C18.921 8.63968 19 8.44891 19 8.25V7.75C19 7.55109 18.921 7.36032 18.7803 7.21967C18.6397 7.07902 18.4489 7 18.25 7ZM17.5 15.75C17.5 15.5511 17.579 15.3603 17.7197 15.2197C17.8603 15.079 18.0511 15 18.25 15C18.4489 15 18.6397 15.079 18.7803 15.2197C18.921 15.3603 19 15.5511 19 15.75V16.25C19 16.4489 18.921 16.6397 18.7803 16.7803C18.6397 16.921 18.4489 17 18.25 17C18.0511 17 17.8603 16.921 17.7197 16.7803C17.579 16.6397 17.5 16.4489 17.5 16.25V15.75ZM18.25 11C18.0511 11 17.8603 11.079 17.7197 11.2197C17.579 11.3603 17.5 11.5511 17.5 11.75V12.25C17.5 12.4489 17.579 12.6397 17.7197 12.7803C17.8603 12.921 18.0511 13 18.25 13C18.4489 13 18.6397 12.921 18.7803 12.7803C18.921 12.6397 19 12.4489 19 12.25V11.75C19 11.5511 18.921 11.3603 18.7803 11.2197C18.6397 11.079 18.4489 11 18.25 11ZM5 7.75C5 7.55109 5.07902 7.36032 5.21967 7.21967C5.36032 7.07902 5.55109 7 5.75 7C5.94891 7 6.13968 7.07902 6.28033 7.21967C6.42098 7.36032 6.5 7.55109 6.5 7.75V8.25C6.5 8.44891 6.42098 8.63968 6.28033 8.78033C6.13968 8.92098 5.94891 9 5.75 9C5.55109 9 5.36032 8.92098 5.21967 8.78033C5.07902 8.63968 5 8.44891 5 8.25V7.75ZM5.75 15C5.55109 15 5.36032 15.079 5.21967 15.2197C5.07902 15.3603 5 15.5511 5 15.75V16.25C5 16.4489 5.07902 16.6397 5.21967 16.7803C5.36032 16.921 5.55109 17 5.75 17C5.94891 17 6.13968 16.921 6.28033 16.7803C6.42098 16.6397 6.5 16.4489 6.5 16.25V15.75C6.5 15.5511 6.42098 15.3603 6.28033 15.2197C6.13968 15.079 5.94891 15 5.75 15ZM5 11.75C5 11.5511 5.07902 11.3603 5.21967 11.2197C5.36032 11.079 5.55109 11 5.75 11C5.94891 11 6.13968 11.079 6.28033 11.2197C6.42098 11.3603 6.5 11.5511 6.5 11.75V12.25C6.5 12.4489 6.42098 12.6397 6.28033 12.7803C6.13968 12.921 5.94891 13 5.75 13C5.55109 13 5.36032 12.921 5.21967 12.7803C5.07902 12.6397 5 12.4489 5 12.25V11.75ZM10 9.751C10 9.172 10.576 8.811 11.034 9.104L14.709 11.447C15.097 11.694 15.097 12.306 14.709 12.553L11.034 14.896C10.576 15.189 10 14.828 10 14.249V9.751Z" fill="black"/>
</svg>
