<svg width="24" height="24" viewBox="0 0 24 24" fill="none" xmlns="http://www.w3.org/2000/svg">
<path d="M5.25 4C4.38805 4 3.5614 4.34241 2.9519 4.9519C2.34241 5.5614 2 6.38805 2 7.25V16.75C2 17.612 2.34241 18.4386 2.9519 19.0481C3.5614 19.6576 4.38805 20 5.25 20H18.75C19.1768 20 19.5994 19.9159 19.9937 19.7526C20.388 19.5893 20.7463 19.3499 21.0481 19.0481C21.3499 18.7463 21.5893 18.388 21.7526 17.9937C21.9159 17.5994 22 17.1768 22 16.75V7.25C22 6.8232 21.9159 6.40059 21.7526 6.00628C21.5893 5.61197 21.3499 5.25369 21.0481 4.9519C20.7463 4.65011 20.388 4.41072 19.9937 4.24739C19.5994 4.08406 19.1768 4 18.75 4H5.25ZM19.25 7C19.4489 7 19.6397 7.07902 19.7803 7.21967C19.921 7.36032 20 7.55109 20 7.75V8.25C20 8.44891 19.921 8.63968 19.7803 8.78033C19.6397 8.92098 19.4489 9 19.25 9C19.0511 9 18.8603 8.92098 18.7197 8.78033C18.579 8.63968 18.5 8.44891 18.5 8.25V7.75C18.5 7.55109 18.579 7.36032 18.7197 7.21967C18.8603 7.07902 19.0511 7 19.25 7ZM18.5 15.75C18.5 15.5511 18.579 15.3603 18.7197 15.2197C18.8603 15.079 19.0511 15 19.25 15C19.4489 15 19.6397 15.079 19.7803 15.2197C19.921 15.3603 20 15.5511 20 15.75V16.25C20 16.4489 19.921 16.6397 19.7803 16.7803C19.6397 16.921 19.4489 17 19.25 17C19.0511 17 18.8603 16.921 18.7197 16.7803C18.579 16.6397 18.5 16.4489 18.5 16.25V15.75ZM19.25 11C19.4489 11 19.6397 11.079 19.7803 11.2197C19.921 11.3603 20 11.5511 20 11.75V12.25C20 12.4489 19.921 12.6397 19.7803 12.7803C19.6397 12.921 19.4489 13 19.25 13C19.0511 13 18.8603 12.921 18.7197 12.7803C18.579 12.6397 18.5 12.4489 18.5 12.25V11.75C18.5 11.5511 18.579 11.3603 18.7197 11.2197C18.8603 11.079 19.0511 11 19.25 11ZM4 7.75C4 7.55109 4.07902 7.36032 4.21967 7.21967C4.36032 7.07902 4.55109 7 4.75 7C4.94891 7 5.13968 7.07902 5.28033 7.21967C5.42098 7.36032 5.5 7.55109 5.5 7.75V8.25C5.5 8.44891 5.42098 8.63968 5.28033 8.78033C5.13968 8.92098 4.94891 9 4.75 9C4.55109 9 4.36032 8.92098 4.21967 8.78033C4.07902 8.63968 4 8.44891 4 8.25V7.75ZM4.75 15C4.94891 15 5.13968 15.079 5.28033 15.2197C5.42098 15.3603 5.5 15.5511 5.5 15.75V16.25C5.5 16.4489 5.42098 16.6397 5.28033 16.7803C5.13968 16.921 4.94891 17 4.75 17C4.55109 17 4.36032 16.921 4.21967 16.7803C4.07902 16.6397 4 16.4489 4 16.25V15.75C4 15.5511 4.07902 15.3603 4.21967 15.2197C4.36032 15.079 4.55109 15 4.75 15ZM4 11.75C4 11.5511 4.07902 11.3603 4.21967 11.2197C4.36032 11.079 4.55109 11 4.75 11C4.94891 11 5.13968 11.079 5.28033 11.2197C5.42098 11.3603 5.5 11.5511 5.5 11.75V12.25C5.5 12.4489 5.42098 12.6397 5.28033 12.7803C5.13968 12.921 4.94891 13 4.75 13C4.55109 13 4.36032 12.921 4.21967 12.7803C4.07902 12.6397 4 12.4489 4 12.25V11.75ZM10 9.751C10 9.172 10.576 8.811 11.034 9.104L14.709 11.447C15.097 11.694 15.097 12.306 14.709 12.553L11.034 14.896C10.576 15.189 10 14.828 10 14.249V9.751Z" fill="black"/>
</svg>
