<svg width="24" height="24" viewBox="0 0 24 24" fill="none" xmlns="http://www.w3.org/2000/svg">
<path d="M19.9578 2.10396C21.1708 1.63696 22.3628 2.82896 21.8958 4.04196L15.3598 21.038C14.8378 22.398 12.8798 22.29 12.5098 20.882L10.6648 13.871C10.6311 13.7424 10.5637 13.6251 10.4697 13.5311C10.3757 13.437 10.2584 13.3697 10.1298 13.336L3.11983 11.491C1.71083 11.121 1.60383 9.16296 2.96283 8.64096L19.9578 2.10396ZM20.4958 3.50396L3.49983 10.04L10.5108 11.885C10.896 11.9864 11.2473 12.1882 11.529 12.4698C11.8106 12.7515 12.0124 13.1028 12.1138 13.488L13.9588 20.498L20.4958 3.50396Z" fill="black"/>
</svg>
