<svg width="24" height="24" viewBox="0 0 24 24" fill="none" xmlns="http://www.w3.org/2000/svg">
<path d="M15 4.25009V19.7461C15 20.8251 13.726 21.3971 12.92 20.6801L8.428 16.6861C8.29072 16.5643 8.11353 16.497 7.93 16.4971H4.25C3.95453 16.4971 3.66194 16.4389 3.38896 16.3258C3.11598 16.2127 2.86794 16.047 2.65901 15.8381C2.45008 15.6291 2.28434 15.3811 2.17127 15.1081C2.0582 14.8351 2 14.5426 2 14.2471V9.74909C2.00027 9.15252 2.23744 8.58048 2.65936 8.15874C3.08129 7.737 3.65344 7.50009 4.25 7.50009H7.93C8.11366 7.49987 8.29086 7.43226 8.428 7.31009L12.919 3.31709C13.726 2.60009 15 3.17209 15 4.25009ZM18.992 5.89809C19.1518 5.77969 19.3521 5.72961 19.5488 5.75887C19.7455 5.78812 19.9226 5.89431 20.041 6.05409C21.3163 7.77429 22.0033 9.85971 22 12.0011C22.0028 14.1422 21.3155 16.2273 20.04 17.9471C19.9203 18.1035 19.744 18.2066 19.549 18.234C19.354 18.2615 19.156 18.2112 18.9978 18.0939C18.8396 17.9767 18.7338 17.8019 18.7034 17.6074C18.6729 17.4128 18.7202 17.2141 18.835 17.0541C19.919 15.5926 20.5028 13.8206 20.5 12.0011C20.5031 10.1812 19.9192 8.40882 18.835 6.94709C18.7763 6.86787 18.7337 6.77785 18.7099 6.68217C18.686 6.5865 18.6812 6.48706 18.6957 6.38953C18.7103 6.292 18.744 6.19831 18.7948 6.11381C18.8457 6.02931 18.9127 5.95666 18.992 5.89809ZM17.143 8.37009C17.2296 8.32312 17.3246 8.29367 17.4226 8.28343C17.5206 8.27319 17.6196 8.28235 17.7141 8.31039C17.8085 8.33844 17.8965 8.38482 17.973 8.44688C18.0495 8.50894 18.1131 8.58546 18.16 8.67209C18.696 9.66209 19 10.7971 19 12.0011C19.0005 13.1629 18.7119 14.3067 18.16 15.3291C18.1131 15.4158 18.0496 15.4923 17.9731 15.5545C17.8967 15.6166 17.8087 15.6631 17.7143 15.6912C17.6198 15.7194 17.5208 15.7286 17.4227 15.7185C17.3247 15.7083 17.2297 15.679 17.143 15.6321C17.0563 15.5852 16.9797 15.5217 16.9176 15.4452C16.8555 15.3687 16.809 15.2808 16.7809 15.1863C16.7527 15.0919 16.7435 14.9928 16.7536 14.8948C16.7638 14.7968 16.7931 14.7018 16.84 14.6151C17.2735 13.812 17.5003 12.9137 17.5 12.0011C17.5 11.0531 17.26 10.1631 16.84 9.38609C16.7455 9.21116 16.7244 9.00588 16.7812 8.81537C16.838 8.62486 16.9682 8.4647 17.143 8.37009Z" fill="black"/>
</svg>
