<svg width="24" height="24" viewBox="0 0 24 24" fill="none" xmlns="http://www.w3.org/2000/svg">
<path d="M14.704 3.4399C14.895 3.6659 15 3.9519 15 4.2479V19.7499C15 19.9884 14.9319 20.2219 14.8035 20.4229C14.6752 20.6239 14.4921 20.7839 14.2757 20.8842C14.0594 20.9845 13.8188 21.0208 13.5825 20.9889C13.3462 20.9569 13.124 20.858 12.942 20.7039L7.975 16.4979H4.25C3.95453 16.4979 3.66194 16.4397 3.38896 16.3266C3.11598 16.2136 2.86794 16.0478 2.65901 15.8389C2.45008 15.63 2.28434 15.3819 2.17127 15.1089C2.0582 14.836 2 14.5434 2 14.2479V9.7479C2 9.15116 2.23705 8.57887 2.65901 8.15691C3.08097 7.73495 3.65326 7.4979 4.25 7.4979H7.975L12.943 3.2939C13.1961 3.07998 13.5237 2.97531 13.8539 3.00287C14.1841 3.03044 14.4899 3.18699 14.704 3.4399Z" fill="black"/>
</svg>
