<svg width="24" height="24" viewBox="0 0 24 24" fill="none" xmlns="http://www.w3.org/2000/svg">
<path d="M3.28015 2.21991C3.21149 2.14622 3.12869 2.08712 3.03669 2.04613C2.94469 2.00514 2.84538 1.98309 2.74468 1.98132C2.64397 1.97954 2.54394 1.99807 2.45056 2.03579C2.35717 2.07351 2.27233 2.12965 2.20112 2.20087C2.1299 2.27209 2.07375 2.35692 2.03603 2.45031C1.99831 2.5437 1.97979 2.64373 1.98156 2.74443C1.98334 2.84513 2.00538 2.94445 2.04637 3.03645C2.08736 3.12845 2.14647 3.21125 2.22015 3.27991L6.43815 7.49991H4.25015C3.65359 7.49991 3.08144 7.73682 2.65952 8.15857C2.23759 8.58031 2.00042 9.15235 2.00015 9.74891V14.2459C2.00015 14.8426 2.23721 15.4149 2.65916 15.8369C3.08112 16.2589 3.65342 16.4959 4.25015 16.4959H7.93015C8.11382 16.4961 8.29102 16.5637 8.42815 16.6859L12.9192 20.6799C13.7252 21.3959 15.0002 20.8239 15.0002 19.7459V16.0599L20.7202 21.7799C20.8617 21.9165 21.0512 21.992 21.2478 21.9902C21.4445 21.9884 21.6325 21.9094 21.7715 21.7703C21.9105 21.6312 21.9893 21.443 21.9909 21.2464C21.9925 21.0497 21.9168 20.8603 21.7802 20.7189L3.28015 2.21991ZM17.1412 13.9599L18.2792 15.0969C18.7539 14.1336 19.0006 13.0739 19.0002 11.9999C19.0007 10.8381 18.712 9.69434 18.1602 8.67191C18.1133 8.58524 18.0498 8.50865 17.9733 8.44651C17.8968 8.38438 17.8088 8.33792 17.7144 8.30978C17.62 8.28165 17.5209 8.27239 17.4229 8.28253C17.3249 8.29268 17.2298 8.32203 17.1432 8.36891C17.0565 8.41579 16.9799 8.47929 16.9178 8.55577C16.8556 8.63225 16.8092 8.72022 16.781 8.81466C16.7529 8.90909 16.7436 9.00815 16.7538 9.10616C16.7639 9.20418 16.7933 9.29924 16.8402 9.38591C17.2602 10.1629 17.5002 11.0519 17.5002 11.9999C17.5002 12.6909 17.3732 13.3509 17.1412 13.9599ZM19.3882 16.2059L20.4812 17.2999C21.4761 15.7114 22.0026 13.8743 22.0002 11.9999C22.0029 9.85876 21.3156 7.77371 20.0402 6.05391C19.9193 5.90117 19.7438 5.80143 19.5508 5.77577C19.3577 5.75011 19.1623 5.80055 19.0057 5.91642C18.8492 6.03229 18.7439 6.2045 18.712 6.39664C18.6802 6.58877 18.7244 6.78575 18.8352 6.94591C19.9193 8.40764 20.5032 10.18 20.5002 11.9999C20.5025 13.4749 20.1191 14.9248 19.3882 16.2059ZM9.52015 6.33791L15.0002 11.8179V4.24991C15.0002 3.17091 13.7262 2.59991 12.9202 3.31591L9.52015 6.33791Z" fill="black"/>
</svg>
