<svg width="24" height="24" viewBox="0 0 24 24" fill="none" xmlns="http://www.w3.org/2000/svg">
<path d="M20.392 0.466069C20.5663 0.370501 20.7715 0.348102 20.9624 0.403797C21.1533 0.459491 21.3143 0.58872 21.41 0.763069C22.4564 2.67513 23.0033 4.82039 23 7.00007C23 9.25807 22.424 11.3841 21.41 13.2361C21.3145 13.4106 21.1536 13.54 20.9627 13.5959C20.7718 13.6518 20.5665 13.6295 20.392 13.5341C20.2174 13.4386 20.088 13.2777 20.0321 13.0868C19.9762 12.8959 19.9985 12.6906 20.094 12.5161C21.0198 10.8252 21.5038 8.92786 21.501 7.00007C21.501 5.00007 20.991 3.12007 20.094 1.48407C20.0467 1.39766 20.0169 1.30279 20.0063 1.20486C19.9956 1.10693 20.0044 1.00788 20.0321 0.913347C20.0598 0.818815 20.1058 0.73066 20.1675 0.653916C20.2293 0.577172 20.3055 0.513341 20.392 0.466069ZM17.29 3.06007C17.4727 2.9816 17.6791 2.97891 17.8638 3.05261C18.0485 3.12631 18.1964 3.27035 18.275 3.45307C18.7547 4.57402 19.0017 5.78076 19.001 7.00007C19.0015 8.2187 18.7545 9.42474 18.275 10.5451C18.2381 10.6383 18.1829 10.7233 18.1126 10.7948C18.0423 10.8664 17.9584 10.9231 17.8658 10.9616C17.7732 11.0002 17.6738 11.0198 17.5735 11.0192C17.4732 11.0187 17.3741 10.9981 17.2819 10.9585C17.1897 10.919 17.1064 10.8614 17.0369 10.7891C16.9674 10.7168 16.9131 10.6313 16.8772 10.5376C16.8413 10.444 16.8245 10.3441 16.8279 10.2439C16.8313 10.1436 16.8548 10.0451 16.897 9.95407C17.2958 9.02037 17.501 8.0154 17.5 7.00007C17.5007 5.98467 17.2952 4.9797 16.896 4.04607C16.8175 3.86333 16.8148 3.65691 16.8885 3.47219C16.9622 3.28748 17.1062 3.1396 17.289 3.06107M18.002 16.2491C18.002 15.6527 17.7652 15.0807 17.3436 14.6588C16.9221 14.2369 16.3503 13.9996 15.754 13.9991H4.25195C3.65522 13.9991 3.08292 14.2361 2.66096 14.6581C2.23901 15.08 2.00195 15.6523 2.00195 16.2491V16.8261C2.00195 17.7191 2.32195 18.5821 2.90195 19.2611C4.46695 21.0961 6.85395 22.0011 9.99895 22.0011C13.144 22.0011 15.532 21.0961 17.101 19.2621C17.6823 18.5828 18.0019 17.7182 18.002 16.8241V16.2491ZM4.25195 15.4991H15.754C15.9525 15.4996 16.1428 15.5789 16.283 15.7194C16.4232 15.86 16.502 16.0505 16.502 16.2491V16.8241C16.5021 17.3605 16.3106 17.8794 15.962 18.2871C14.705 19.7551 12.738 20.5011 9.99895 20.5011C7.25995 20.5011 5.29495 19.7551 4.04195 18.2871C3.69397 17.8802 3.50251 17.3625 3.50195 16.8271V16.2491C3.50195 16.0502 3.58097 15.8594 3.72162 15.7187C3.86228 15.5781 4.05304 15.4991 4.25195 15.4991ZM15 7.00507C15 5.67899 14.4732 4.40722 13.5355 3.46954C12.5978 2.53185 11.326 2.00507 9.99995 2.00507C8.67387 2.00507 7.4021 2.53185 6.46442 3.46954C5.52674 4.40722 4.99995 5.67899 4.99995 7.00507C4.99995 8.33115 5.52674 9.60292 6.46442 10.5406C7.4021 11.4783 8.67387 12.0051 9.99995 12.0051C11.326 12.0051 12.5978 11.4783 13.5355 10.5406C14.4732 9.60292 15 8.33115 15 7.00507ZM6.49995 7.00507C6.49995 6.54544 6.59048 6.09032 6.76637 5.66568C6.94227 5.24104 7.20007 4.8552 7.52508 4.5302C7.85008 4.20519 8.23592 3.94738 8.66056 3.77149C9.0852 3.5956 9.54033 3.50507 9.99995 3.50507C10.4596 3.50507 10.9147 3.5956 11.3393 3.77149C11.764 3.94738 12.1498 4.20519 12.4748 4.5302C12.7998 4.8552 13.0576 5.24104 13.2335 5.66568C13.4094 6.09032 13.5 6.54544 13.5 7.00507C13.5 7.93333 13.1312 8.82357 12.4748 9.47994C11.8184 10.1363 10.9282 10.5051 9.99995 10.5051C9.0717 10.5051 8.18146 10.1363 7.52508 9.47994C6.8687 8.82357 6.49995 7.93333 6.49995 7.00507Z" fill="black"/>
</svg>
