<svg width="3" height="13" viewBox="0 0 3 13" fill="none" xmlns="http://www.w3.org/2000/svg">
<path d="M1.25 2.5C0.918479 2.5 0.600537 2.3683 0.366117 2.13388C0.131696 1.89946 0 1.58152 0 1.25C0 0.918479 0.131696 0.600537 0.366117 0.366117C0.600537 0.131696 0.918479 0 1.25 0C1.58152 0 1.89946 0.131696 2.13388 0.366117C2.3683 0.600537 2.5 0.918479 2.5 1.25C2.5 1.58152 2.3683 1.89946 2.13388 2.13388C1.89946 2.3683 1.58152 2.5 1.25 2.5ZM1.25 7.75C0.918479 7.75 0.600537 7.6183 0.366117 7.38388C0.131696 7.14946 0 6.83152 0 6.5C0 6.16848 0.131696 5.85054 0.366117 5.61612C0.600537 5.3817 0.918479 5.25 1.25 5.25C1.58152 5.25 1.89946 5.3817 2.13388 5.61612C2.3683 5.85054 2.5 6.16848 2.5 6.5C2.5 6.83152 2.3683 7.14946 2.13388 7.38388C1.89946 7.6183 1.58152 7.75 1.25 7.75ZM0 11.75C0 12.0815 0.131696 12.3995 0.366117 12.6339C0.600537 12.8683 0.918479 13 1.25 13C1.58152 13 1.89946 12.8683 2.13388 12.6339C2.3683 12.3995 2.5 12.0815 2.5 11.75C2.5 11.4185 2.3683 11.1005 2.13388 10.8661C1.89946 10.6317 1.58152 10.5 1.25 10.5C0.918479 10.5 0.600537 10.6317 0.366117 10.8661C0.131696 11.1005 0 11.4185 0 11.75Z" fill="black"/>
</svg>
